<?xml version="1.0" encoding="UTF-8" standalone="no"?>
<!DOCTYPE svg PUBLIC "-//W3C//DTD SVG 1.1//EN"
 "http://www.w3.org/Graphics/SVG/1.1/DTD/svg11.dtd">
<!-- Generated by graphviz version 2.38.0 (20140413.2041)
 -->
<!-- Title: unnamed Pages: 1 -->
<svg width="1163pt" height="483pt"
 viewBox="0.00 0.00 1162.50 483.00" xmlns="http://www.w3.org/2000/svg" xmlns:xlink="http://www.w3.org/1999/xlink">
<g id="graph0" class="graph" transform="scale(1 1) rotate(0) translate(4 479)">
<title>unnamed</title>
<polygon fill="white" stroke="none" points="-4,4 -4,-479 1158.5,-479 1158.5,4 -4,4"/>
<!-- Node0xa1a8348 -->
<g id="node1" class="node"><title>Node0xa1a8348</title>
<polygon fill="none" stroke="black" points="625,-438.5 625,-474.5 729,-474.5 729,-438.5 625,-438.5"/>
<text text-anchor="middle" x="677" y="-452.8" font-family="Times,serif" font-size="14.00">CompoundStmt</text>
</g>
<!-- Node0xa1a7f48 -->
<g id="node2" class="node"><title>Node0xa1a7f48</title>
<polygon fill="none" stroke="black" points="440,-365.5 440,-401.5 508,-401.5 508,-365.5 440,-365.5"/>
<text text-anchor="middle" x="474" y="-379.8" font-family="Times,serif" font-size="14.00">DeclStmt</text>
</g>
<!-- Node0xa1a8348&#45;&gt;Node0xa1a7f48 -->
<g id="edge1" class="edge"><title>Node0xa1a8348&#45;&gt;Node0xa1a7f48</title>
<path fill="none" stroke="black" d="M624.825,-438.985C595.68,-429.546 558.542,-417.167 517.78,-402.191"/>
<polygon fill="black" stroke="black" points="518.784,-398.831 508.191,-398.644 516.355,-405.396 518.784,-398.831"/>
</g>
<!-- Node0xa1a8188 -->
<g id="node3" class="node"><title>Node0xa1a8188</title>
<polygon fill="none" stroke="black" points="526,-365.5 526,-401.5 588,-401.5 588,-365.5 526,-365.5"/>
<text text-anchor="middle" x="557" y="-379.8" font-family="Times,serif" font-size="14.00">ForStmt</text>
</g>
<!-- Node0xa1a8348&#45;&gt;Node0xa1a8188 -->
<g id="edge2" class="edge"><title>Node0xa1a8348&#45;&gt;Node0xa1a8188</title>
<path fill="none" stroke="black" d="M648.257,-438.494C632.197,-428.991 611.991,-417.036 594.677,-406.792"/>
<polygon fill="black" stroke="black" points="596.313,-403.694 585.924,-401.614 592.749,-409.718 596.313,-403.694"/>
</g>
<!-- Node0xa1a82d8 -->
<g id="node4" class="node"><title>Node0xa1a82d8</title>
<polygon fill="none" stroke="black" points="794,-365.5 794,-401.5 848,-401.5 848,-365.5 794,-365.5"/>
<text text-anchor="middle" x="821" y="-379.8" font-family="Times,serif" font-size="14.00">IfStmt</text>
</g>
<!-- Node0xa1a8348&#45;&gt;Node0xa1a82d8 -->
<g id="edge3" class="edge"><title>Node0xa1a8348&#45;&gt;Node0xa1a82d8</title>
<path fill="none" stroke="black" d="M711.492,-438.494C733.624,-427.581 762.317,-413.434 784.78,-402.358"/>
<polygon fill="black" stroke="black" points="786.567,-405.38 793.989,-397.818 783.472,-399.101 786.567,-405.38"/>
</g>
<!-- Node0xa1a8330 -->
<g id="node5" class="node"><title>Node0xa1a8330</title>
<polygon fill="none" stroke="black" points="997,-365.5 997,-401.5 1077,-401.5 1077,-365.5 997,-365.5"/>
<text text-anchor="middle" x="1037" y="-379.8" font-family="Times,serif" font-size="14.00">ReturnStmt</text>
</g>
<!-- Node0xa1a8348&#45;&gt;Node0xa1a8330 -->
<g id="edge4" class="edge"><title>Node0xa1a8348&#45;&gt;Node0xa1a8330</title>
<path fill="none" stroke="black" d="M729.347,-445.176C798.349,-431.567 918.913,-407.789 986.817,-394.397"/>
<polygon fill="black" stroke="black" points="987.71,-397.789 996.844,-392.42 986.355,-390.921 987.71,-397.789"/>
</g>
<!-- Node0xa1a7fa8 -->
<g id="node6" class="node"><title>Node0xa1a7fa8</title>
<polygon fill="none" stroke="black" points="101.5,-292.5 101.5,-328.5 202.5,-328.5 202.5,-292.5 101.5,-292.5"/>
<text text-anchor="middle" x="152" y="-306.8" font-family="Times,serif" font-size="14.00">BinaryOperator</text>
</g>
<!-- Node0xa1a8188&#45;&gt;Node0xa1a7fa8 -->
<g id="edge5" class="edge"><title>Node0xa1a8188&#45;&gt;Node0xa1a7fa8</title>
<path fill="none" stroke="black" d="M525.85,-367.931C522.895,-366.836 519.915,-365.835 517,-365 461.181,-349.011 301.325,-328.832 212.81,-318.42"/>
<polygon fill="black" stroke="black" points="212.982,-314.916 202.643,-317.23 212.168,-321.869 212.982,-314.916"/>
</g>
<!-- Node0xa1a8030 -->
<g id="node7" class="node"><title>Node0xa1a8030</title>
<polygon fill="none" stroke="black" points="329.5,-292.5 329.5,-328.5 430.5,-328.5 430.5,-292.5 329.5,-292.5"/>
<text text-anchor="middle" x="380" y="-306.8" font-family="Times,serif" font-size="14.00">BinaryOperator</text>
</g>
<!-- Node0xa1a8188&#45;&gt;Node0xa1a8030 -->
<g id="edge6" class="edge"><title>Node0xa1a8188&#45;&gt;Node0xa1a8030</title>
<path fill="none" stroke="black" d="M525.608,-368.624C522.704,-367.384 519.802,-366.159 517,-365 489.907,-353.789 459.555,-341.871 434.319,-332.136"/>
<polygon fill="black" stroke="black" points="435.504,-328.842 424.915,-328.518 432.991,-335.375 435.504,-328.842"/>
</g>
<!-- Node0xa1a8080 -->
<g id="node8" class="node"><title>Node0xa1a8080</title>
<polygon fill="none" stroke="black" points="449,-292.5 449,-328.5 547,-328.5 547,-292.5 449,-292.5"/>
<text text-anchor="middle" x="498" y="-306.8" font-family="Times,serif" font-size="14.00">UnaryOperator</text>
</g>
<!-- Node0xa1a8188&#45;&gt;Node0xa1a8080 -->
<g id="edge7" class="edge"><title>Node0xa1a8188&#45;&gt;Node0xa1a8080</title>
<path fill="none" stroke="black" d="M542.718,-365.313C535.471,-356.592 526.536,-345.84 518.564,-336.246"/>
<polygon fill="black" stroke="black" points="521.234,-333.983 512.151,-328.529 515.85,-338.457 521.234,-333.983"/>
</g>
<!-- Node0xa1a8168 -->
<g id="node9" class="node"><title>Node0xa1a8168</title>
<polygon fill="none" stroke="black" points="565,-292.5 565,-328.5 669,-328.5 669,-292.5 565,-292.5"/>
<text text-anchor="middle" x="617" y="-306.8" font-family="Times,serif" font-size="14.00">CompoundStmt</text>
</g>
<!-- Node0xa1a8188&#45;&gt;Node0xa1a8168 -->
<g id="edge8" class="edge"><title>Node0xa1a8188&#45;&gt;Node0xa1a8168</title>
<path fill="none" stroke="black" d="M571.524,-365.313C578.894,-356.592 587.98,-345.84 596.088,-336.246"/>
<polygon fill="black" stroke="black" points="598.828,-338.426 602.609,-328.529 593.482,-333.908 598.828,-338.426"/>
</g>
<!-- Node0xa1a8220 -->
<g id="node22" class="node"><title>Node0xa1a8220</title>
<polygon fill="none" stroke="black" points="711.5,-292.5 711.5,-328.5 812.5,-328.5 812.5,-292.5 711.5,-292.5"/>
<text text-anchor="middle" x="762" y="-306.8" font-family="Times,serif" font-size="14.00">BinaryOperator</text>
</g>
<!-- Node0xa1a82d8&#45;&gt;Node0xa1a8220 -->
<g id="edge21" class="edge"><title>Node0xa1a82d8&#45;&gt;Node0xa1a8220</title>
<path fill="none" stroke="black" d="M806.718,-365.313C799.471,-356.592 790.536,-345.84 782.564,-336.246"/>
<polygon fill="black" stroke="black" points="785.234,-333.983 776.151,-328.529 779.85,-338.457 785.234,-333.983"/>
</g>
<!-- Node0xa1a8270 -->
<g id="node23" class="node"><title>Node0xa1a8270</title>
<polygon fill="none" stroke="black" points="831,-292.5 831,-328.5 929,-328.5 929,-292.5 831,-292.5"/>
<text text-anchor="middle" x="880" y="-306.8" font-family="Times,serif" font-size="14.00">UnaryOperator</text>
</g>
<!-- Node0xa1a82d8&#45;&gt;Node0xa1a8270 -->
<g id="edge22" class="edge"><title>Node0xa1a82d8&#45;&gt;Node0xa1a8270</title>
<path fill="none" stroke="black" d="M835.282,-365.313C842.529,-356.592 851.464,-345.84 859.436,-336.246"/>
<polygon fill="black" stroke="black" points="862.15,-338.457 865.849,-328.529 856.766,-333.983 862.15,-338.457"/>
</g>
<!-- Node0xa1a82b8 -->
<g id="node24" class="node"><title>Node0xa1a82b8</title>
<polygon fill="none" stroke="black" points="947,-292.5 947,-328.5 1045,-328.5 1045,-292.5 947,-292.5"/>
<text text-anchor="middle" x="996" y="-306.8" font-family="Times,serif" font-size="14.00">UnaryOperator</text>
</g>
<!-- Node0xa1a82d8&#45;&gt;Node0xa1a82b8 -->
<g id="edge23" class="edge"><title>Node0xa1a82d8&#45;&gt;Node0xa1a82b8</title>
<path fill="none" stroke="black" d="M848.344,-371.406C873.956,-361.015 912.898,-345.216 944.36,-332.451"/>
<polygon fill="black" stroke="black" points="945.91,-335.599 953.86,-328.597 943.278,-329.113 945.91,-335.599"/>
</g>
<!-- Node0xa1a8310 -->
<g id="node30" class="node"><title>Node0xa1a8310</title>
<polygon fill="none" stroke="black" points="1063.5,-292.5 1063.5,-328.5 1154.5,-328.5 1154.5,-292.5 1063.5,-292.5"/>
<text text-anchor="middle" x="1109" y="-306.8" font-family="Times,serif" font-size="14.00">IntegerLiteral</text>
</g>
<!-- Node0xa1a8330&#45;&gt;Node0xa1a8310 -->
<g id="edge29" class="edge"><title>Node0xa1a8330&#45;&gt;Node0xa1a8310</title>
<path fill="none" stroke="black" d="M1054.43,-365.313C1063.45,-356.417 1074.61,-345.409 1084.49,-335.672"/>
<polygon fill="black" stroke="black" points="1087.07,-338.042 1091.73,-328.529 1082.15,-333.058 1087.07,-338.042"/>
</g>
<!-- Node0xa1a7f60 -->
<g id="node10" class="node"><title>Node0xa1a7f60</title>
<polygon fill="none" stroke="black" points="0,-219.5 0,-255.5 88,-255.5 88,-219.5 0,-219.5"/>
<text text-anchor="middle" x="44" y="-233.8" font-family="Times,serif" font-size="14.00">DeclRefExpr</text>
</g>
<!-- Node0xa1a7fa8&#45;&gt;Node0xa1a7f60 -->
<g id="edge9" class="edge"><title>Node0xa1a7fa8&#45;&gt;Node0xa1a7f60</title>
<path fill="none" stroke="black" d="M126.131,-292.494C111.942,-283.166 94.1579,-271.474 78.7699,-261.358"/>
<polygon fill="black" stroke="black" points="80.3107,-258.182 70.0319,-255.614 76.4653,-264.032 80.3107,-258.182"/>
</g>
<!-- Node0xa1a7f88 -->
<g id="node11" class="node"><title>Node0xa1a7f88</title>
<polygon fill="none" stroke="black" points="106.5,-219.5 106.5,-255.5 197.5,-255.5 197.5,-219.5 106.5,-219.5"/>
<text text-anchor="middle" x="152" y="-233.8" font-family="Times,serif" font-size="14.00">IntegerLiteral</text>
</g>
<!-- Node0xa1a7fa8&#45;&gt;Node0xa1a7f88 -->
<g id="edge10" class="edge"><title>Node0xa1a7fa8&#45;&gt;Node0xa1a7f88</title>
<path fill="none" stroke="black" d="M152,-292.313C152,-284.289 152,-274.547 152,-265.569"/>
<polygon fill="black" stroke="black" points="155.5,-265.529 152,-255.529 148.5,-265.529 155.5,-265.529"/>
</g>
<!-- Node0xa1a8018 -->
<g id="node12" class="node"><title>Node0xa1a8018</title>
<polygon fill="none" stroke="black" points="216,-219.5 216,-255.5 326,-255.5 326,-219.5 216,-219.5"/>
<text text-anchor="middle" x="271" y="-233.8" font-family="Times,serif" font-size="14.00">ImplicitCastExpr</text>
</g>
<!-- Node0xa1a8030&#45;&gt;Node0xa1a8018 -->
<g id="edge11" class="edge"><title>Node0xa1a8030&#45;&gt;Node0xa1a8018</title>
<path fill="none" stroke="black" d="M353.892,-292.494C339.437,-283.079 321.287,-271.255 305.657,-261.075"/>
<polygon fill="black" stroke="black" points="307.562,-258.139 297.273,-255.614 303.742,-264.004 307.562,-258.139"/>
</g>
<!-- Node0xa1a7ff8 -->
<g id="node13" class="node"><title>Node0xa1a7ff8</title>
<polygon fill="none" stroke="black" points="344.5,-219.5 344.5,-255.5 435.5,-255.5 435.5,-219.5 344.5,-219.5"/>
<text text-anchor="middle" x="390" y="-233.8" font-family="Times,serif" font-size="14.00">IntegerLiteral</text>
</g>
<!-- Node0xa1a8030&#45;&gt;Node0xa1a7ff8 -->
<g id="edge12" class="edge"><title>Node0xa1a8030&#45;&gt;Node0xa1a7ff8</title>
<path fill="none" stroke="black" d="M382.421,-292.313C383.551,-284.289 384.923,-274.547 386.187,-265.569"/>
<polygon fill="black" stroke="black" points="389.673,-265.919 387.602,-255.529 382.741,-264.943 389.673,-265.919"/>
</g>
<!-- Node0xa1a8058 -->
<g id="node15" class="node"><title>Node0xa1a8058</title>
<polygon fill="none" stroke="black" points="454,-219.5 454,-255.5 542,-255.5 542,-219.5 454,-219.5"/>
<text text-anchor="middle" x="498" y="-233.8" font-family="Times,serif" font-size="14.00">DeclRefExpr</text>
</g>
<!-- Node0xa1a8080&#45;&gt;Node0xa1a8058 -->
<g id="edge14" class="edge"><title>Node0xa1a8080&#45;&gt;Node0xa1a8058</title>
<path fill="none" stroke="black" d="M498,-292.313C498,-284.289 498,-274.547 498,-265.569"/>
<polygon fill="black" stroke="black" points="501.5,-265.529 498,-255.529 494.5,-265.529 501.5,-265.529"/>
</g>
<!-- Node0xa1a8130 -->
<g id="node16" class="node"><title>Node0xa1a8130</title>
<polygon fill="none" stroke="black" points="560,-219.5 560,-255.5 614,-255.5 614,-219.5 560,-219.5"/>
<text text-anchor="middle" x="587" y="-233.8" font-family="Times,serif" font-size="14.00">IfStmt</text>
</g>
<!-- Node0xa1a8168&#45;&gt;Node0xa1a8130 -->
<g id="edge15" class="edge"><title>Node0xa1a8168&#45;&gt;Node0xa1a8130</title>
<path fill="none" stroke="black" d="M609.738,-292.313C606.274,-284.115 602.052,-274.123 598.191,-264.985"/>
<polygon fill="black" stroke="black" points="601.312,-263.378 594.195,-255.529 594.863,-266.103 601.312,-263.378"/>
</g>
<!-- Node0xa1a7fd0 -->
<g id="node14" class="node"><title>Node0xa1a7fd0</title>
<polygon fill="none" stroke="black" points="227,-146.5 227,-182.5 315,-182.5 315,-146.5 227,-146.5"/>
<text text-anchor="middle" x="271" y="-160.8" font-family="Times,serif" font-size="14.00">DeclRefExpr</text>
</g>
<!-- Node0xa1a8018&#45;&gt;Node0xa1a7fd0 -->
<g id="edge13" class="edge"><title>Node0xa1a8018&#45;&gt;Node0xa1a7fd0</title>
<path fill="none" stroke="black" d="M271,-219.313C271,-211.289 271,-201.547 271,-192.569"/>
<polygon fill="black" stroke="black" points="274.5,-192.529 271,-182.529 267.5,-192.529 274.5,-192.529"/>
</g>
<!-- Node0xa1a8100 -->
<g id="node17" class="node"><title>Node0xa1a8100</title>
<polygon fill="none" stroke="black" points="430.5,-146.5 430.5,-182.5 531.5,-182.5 531.5,-146.5 430.5,-146.5"/>
<text text-anchor="middle" x="481" y="-160.8" font-family="Times,serif" font-size="14.00">BinaryOperator</text>
</g>
<!-- Node0xa1a8130&#45;&gt;Node0xa1a8100 -->
<g id="edge16" class="edge"><title>Node0xa1a8130&#45;&gt;Node0xa1a8100</title>
<path fill="none" stroke="black" d="M561.61,-219.494C547.684,-210.166 530.229,-198.474 515.126,-188.358"/>
<polygon fill="black" stroke="black" points="516.806,-185.271 506.55,-182.614 512.91,-191.087 516.806,-185.271"/>
</g>
<!-- Node0xa1a8128 -->
<g id="node18" class="node"><title>Node0xa1a8128</title>
<polygon fill="none" stroke="black" points="549.5,-146.5 549.5,-182.5 624.5,-182.5 624.5,-146.5 549.5,-146.5"/>
<text text-anchor="middle" x="587" y="-160.8" font-family="Times,serif" font-size="14.00">BreakStmt</text>
</g>
<!-- Node0xa1a8130&#45;&gt;Node0xa1a8128 -->
<g id="edge17" class="edge"><title>Node0xa1a8130&#45;&gt;Node0xa1a8128</title>
<path fill="none" stroke="black" d="M587,-219.313C587,-211.289 587,-201.547 587,-192.569"/>
<polygon fill="black" stroke="black" points="590.5,-192.529 587,-182.529 583.5,-192.529 590.5,-192.529"/>
</g>
<!-- Node0xa1a80e8 -->
<g id="node19" class="node"><title>Node0xa1a80e8</title>
<polygon fill="none" stroke="black" points="367,-73.5 367,-109.5 477,-109.5 477,-73.5 367,-73.5"/>
<text text-anchor="middle" x="422" y="-87.8" font-family="Times,serif" font-size="14.00">ImplicitCastExpr</text>
</g>
<!-- Node0xa1a8100&#45;&gt;Node0xa1a80e8 -->
<g id="edge18" class="edge"><title>Node0xa1a8100&#45;&gt;Node0xa1a80e8</title>
<path fill="none" stroke="black" d="M466.718,-146.313C459.471,-137.592 450.536,-126.84 442.564,-117.246"/>
<polygon fill="black" stroke="black" points="445.234,-114.983 436.151,-109.529 439.85,-119.457 445.234,-114.983"/>
</g>
<!-- Node0xa1a80c8 -->
<g id="node20" class="node"><title>Node0xa1a80c8</title>
<polygon fill="none" stroke="black" points="495.5,-73.5 495.5,-109.5 586.5,-109.5 586.5,-73.5 495.5,-73.5"/>
<text text-anchor="middle" x="541" y="-87.8" font-family="Times,serif" font-size="14.00">IntegerLiteral</text>
</g>
<!-- Node0xa1a8100&#45;&gt;Node0xa1a80c8 -->
<g id="edge19" class="edge"><title>Node0xa1a8100&#45;&gt;Node0xa1a80c8</title>
<path fill="none" stroke="black" d="M495.524,-146.313C502.894,-137.592 511.98,-126.84 520.088,-117.246"/>
<polygon fill="black" stroke="black" points="522.828,-119.426 526.609,-109.529 517.482,-114.908 522.828,-119.426"/>
</g>
<!-- Node0xa1a80a0 -->
<g id="node21" class="node"><title>Node0xa1a80a0</title>
<polygon fill="none" stroke="black" points="378,-0.5 378,-36.5 466,-36.5 466,-0.5 378,-0.5"/>
<text text-anchor="middle" x="422" y="-14.8" font-family="Times,serif" font-size="14.00">DeclRefExpr</text>
</g>
<!-- Node0xa1a80e8&#45;&gt;Node0xa1a80a0 -->
<g id="edge20" class="edge"><title>Node0xa1a80e8&#45;&gt;Node0xa1a80a0</title>
<path fill="none" stroke="black" d="M422,-73.3129C422,-65.2895 422,-55.5475 422,-46.5691"/>
<polygon fill="black" stroke="black" points="425.5,-46.5288 422,-36.5288 418.5,-46.5289 425.5,-46.5288"/>
</g>
<!-- Node0xa1a8208 -->
<g id="node25" class="node"><title>Node0xa1a8208</title>
<polygon fill="none" stroke="black" points="632,-219.5 632,-255.5 742,-255.5 742,-219.5 632,-219.5"/>
<text text-anchor="middle" x="687" y="-233.8" font-family="Times,serif" font-size="14.00">ImplicitCastExpr</text>
</g>
<!-- Node0xa1a8220&#45;&gt;Node0xa1a8208 -->
<g id="edge24" class="edge"><title>Node0xa1a8220&#45;&gt;Node0xa1a8208</title>
<path fill="none" stroke="black" d="M743.845,-292.313C734.448,-283.417 722.82,-272.409 712.533,-262.672"/>
<polygon fill="black" stroke="black" points="714.656,-259.862 704.988,-255.529 709.844,-264.945 714.656,-259.862"/>
</g>
<!-- Node0xa1a81e8 -->
<g id="node26" class="node"><title>Node0xa1a81e8</title>
<polygon fill="none" stroke="black" points="760.5,-219.5 760.5,-255.5 851.5,-255.5 851.5,-219.5 760.5,-219.5"/>
<text text-anchor="middle" x="806" y="-233.8" font-family="Times,serif" font-size="14.00">IntegerLiteral</text>
</g>
<!-- Node0xa1a8220&#45;&gt;Node0xa1a81e8 -->
<g id="edge25" class="edge"><title>Node0xa1a8220&#45;&gt;Node0xa1a81e8</title>
<path fill="none" stroke="black" d="M772.651,-292.313C777.894,-283.853 784.32,-273.484 790.127,-264.112"/>
<polygon fill="black" stroke="black" points="793.154,-265.873 795.447,-255.529 787.204,-262.185 793.154,-265.873"/>
</g>
<!-- Node0xa1a8248 -->
<g id="node28" class="node"><title>Node0xa1a8248</title>
<polygon fill="none" stroke="black" points="870,-219.5 870,-255.5 958,-255.5 958,-219.5 870,-219.5"/>
<text text-anchor="middle" x="914" y="-233.8" font-family="Times,serif" font-size="14.00">DeclRefExpr</text>
</g>
<!-- Node0xa1a8270&#45;&gt;Node0xa1a8248 -->
<g id="edge27" class="edge"><title>Node0xa1a8270&#45;&gt;Node0xa1a8248</title>
<path fill="none" stroke="black" d="M888.23,-292.313C892.198,-284.028 897.043,-273.91 901.457,-264.693"/>
<polygon fill="black" stroke="black" points="904.683,-266.06 905.845,-255.529 898.37,-263.036 904.683,-266.06"/>
</g>
<!-- Node0xa1a8290 -->
<g id="node29" class="node"><title>Node0xa1a8290</title>
<polygon fill="none" stroke="black" points="976,-219.5 976,-255.5 1064,-255.5 1064,-219.5 976,-219.5"/>
<text text-anchor="middle" x="1020" y="-233.8" font-family="Times,serif" font-size="14.00">DeclRefExpr</text>
</g>
<!-- Node0xa1a82b8&#45;&gt;Node0xa1a8290 -->
<g id="edge28" class="edge"><title>Node0xa1a82b8&#45;&gt;Node0xa1a8290</title>
<path fill="none" stroke="black" d="M1001.81,-292.313C1004.55,-284.202 1007.89,-274.336 1010.95,-265.277"/>
<polygon fill="black" stroke="black" points="1014.36,-266.123 1014.24,-255.529 1007.73,-263.881 1014.36,-266.123"/>
</g>
<!-- Node0xa1a81c0 -->
<g id="node27" class="node"><title>Node0xa1a81c0</title>
<polygon fill="none" stroke="black" points="643,-146.5 643,-182.5 731,-182.5 731,-146.5 643,-146.5"/>
<text text-anchor="middle" x="687" y="-160.8" font-family="Times,serif" font-size="14.00">DeclRefExpr</text>
</g>
<!-- Node0xa1a8208&#45;&gt;Node0xa1a81c0 -->
<g id="edge26" class="edge"><title>Node0xa1a8208&#45;&gt;Node0xa1a81c0</title>
<path fill="none" stroke="black" d="M687,-219.313C687,-211.289 687,-201.547 687,-192.569"/>
<polygon fill="black" stroke="black" points="690.5,-192.529 687,-182.529 683.5,-192.529 690.5,-192.529"/>
</g>
</g>
</svg>
