<?xml version="1.0" encoding="UTF-8" standalone="no"?>
<!DOCTYPE svg PUBLIC "-//W3C//DTD SVG 1.1//EN"
 "http://www.w3.org/Graphics/SVG/1.1/DTD/svg11.dtd">
<!-- Generated by graphviz version 2.38.0 (20140413.2041)
 -->
<!-- Title: unnamed Pages: 1 -->
<svg width="489pt" height="913pt"
 viewBox="0.00 0.00 489.00 913.00" xmlns="http://www.w3.org/2000/svg" xmlns:xlink="http://www.w3.org/1999/xlink">
<g id="graph0" class="graph" transform="scale(1 1) rotate(0) translate(4 909)">
<title>unnamed</title>
<polygon fill="white" stroke="none" points="-4,4 -4,-909 485,-909 485,4 -4,4"/>
<!-- Node0xa227760 -->
<g id="node1" class="node"><title>Node0xa227760</title>
<polygon fill="none" stroke="black" points="172.5,-0.5 172.5,-36.5 257.5,-36.5 257.5,-0.5 172.5,-0.5"/>
<text text-anchor="start" x="180.5" y="-14.8" font-family="Times,serif" font-size="14.00">[B0 (EXIT)]</text>
</g>
<!-- Node0xa227838 -->
<g id="node2" class="node"><title>Node0xa227838</title>
<polygon fill="none" stroke="black" points="160,-73.5 160,-126.5 270,-126.5 270,-73.5 160,-73.5"/>
<text text-anchor="start" x="168" y="-111.3" font-family="Times,serif" font-size="14.00">[B1]</text>
<text text-anchor="start" x="168" y="-96.3" font-family="Times,serif" font-size="14.00"> 1: 0</text>
<text text-anchor="start" x="168" y="-81.3" font-family="Times,serif" font-size="14.00"> 2: return [B1.1];</text>
</g>
<!-- Node0xa227838&#45;&gt;Node0xa227760 -->
<g id="edge1" class="edge"><title>Node0xa227838&#45;&gt;Node0xa227760</title>
<path fill="none" stroke="black" d="M215,-73.4081C215,-64.9823 215,-55.5803 215,-47.0174"/>
<polygon fill="black" stroke="black" points="218.5,-46.7564 215,-36.7564 211.5,-46.7565 218.5,-46.7564"/>
</g>
<!-- Node0xa227910 -->
<g id="node3" class="node"><title>Node0xa227910</title>
<polygon fill="none" stroke="black" points="125.5,-163.5 125.5,-216.5 204.5,-216.5 204.5,-163.5 125.5,-163.5"/>
<text text-anchor="start" x="133.5" y="-201.3" font-family="Times,serif" font-size="14.00">[B2]</text>
<text text-anchor="start" x="133.5" y="-186.3" font-family="Times,serif" font-size="14.00"> 1: i</text>
<text text-anchor="start" x="133.5" y="-171.3" font-family="Times,serif" font-size="14.00"> 2: [B2.1]&#45;&#45;</text>
</g>
<!-- Node0xa227910&#45;&gt;Node0xa227838 -->
<g id="edge2" class="edge"><title>Node0xa227910&#45;&gt;Node0xa227838</title>
<path fill="none" stroke="black" d="M179.731,-163.073C184.614,-154.48 190.129,-144.773 195.323,-135.632"/>
<polygon fill="black" stroke="black" points="198.477,-137.165 200.374,-126.742 192.391,-133.707 198.477,-137.165"/>
</g>
<!-- Node0xa2279e8 -->
<g id="node4" class="node"><title>Node0xa2279e8</title>
<polygon fill="none" stroke="black" points="223,-163.5 223,-216.5 309,-216.5 309,-163.5 223,-163.5"/>
<text text-anchor="start" x="231" y="-201.3" font-family="Times,serif" font-size="14.00">[B3]</text>
<text text-anchor="start" x="231" y="-186.3" font-family="Times,serif" font-size="14.00"> 1: i</text>
<text text-anchor="start" x="231" y="-171.3" font-family="Times,serif" font-size="14.00"> 2: [B3.1]++</text>
</g>
<!-- Node0xa2279e8&#45;&gt;Node0xa227838 -->
<g id="edge3" class="edge"><title>Node0xa2279e8&#45;&gt;Node0xa227838</title>
<path fill="none" stroke="black" d="M250.974,-163.073C245.994,-154.48 240.368,-144.773 235.071,-135.632"/>
<polygon fill="black" stroke="black" points="237.961,-133.639 229.918,-126.742 231.905,-137.149 237.961,-133.639"/>
</g>
<!-- Node0xa227ae0 -->
<g id="node5" class="node"><title>Node0xa227ae0</title>
<polygon fill="none" stroke="black" points="64,-253.5 64,-351.5 366,-351.5 366,-253.5 64,-253.5"/>
<text text-anchor="start" x="72" y="-336.3" font-family="Times,serif" font-size="14.00">[B4]</text>
<text text-anchor="start" x="72" y="-321.3" font-family="Times,serif" font-size="14.00"> 1: i</text>
<text text-anchor="start" x="72" y="-306.3" font-family="Times,serif" font-size="14.00"> 2: [B4.1] (ImplicitCastExpr, LValueToRValue, int)</text>
<text text-anchor="start" x="72" y="-291.3" font-family="Times,serif" font-size="14.00"> 3: 100</text>
<text text-anchor="start" x="72" y="-276.3" font-family="Times,serif" font-size="14.00"> 4: [B4.2] == [B4.3]</text>
<text text-anchor="start" x="72" y="-261.3" font-family="Times,serif" font-size="14.00"> T: if [B4.4]</text>
</g>
<!-- Node0xa227ae0&#45;&gt;Node0xa227910 -->
<g id="edge5" class="edge"><title>Node0xa227ae0&#45;&gt;Node0xa227910</title>
<path fill="none" stroke="black" d="M193.215,-253.355C189.002,-244.044 184.665,-234.459 180.693,-225.682"/>
<polygon fill="black" stroke="black" points="183.862,-224.194 176.55,-216.527 177.484,-227.08 183.862,-224.194"/>
</g>
<!-- Node0xa227ae0&#45;&gt;Node0xa2279e8 -->
<g id="edge4" class="edge"><title>Node0xa227ae0&#45;&gt;Node0xa2279e8</title>
<path fill="none" stroke="black" d="M237.221,-253.355C241.518,-244.044 245.942,-234.459 249.993,-225.682"/>
<polygon fill="black" stroke="black" points="253.206,-227.073 254.219,-216.527 246.85,-224.139 253.206,-227.073"/>
</g>
<!-- Node0xa227bd8 -->
<g id="node6" class="node"><title>Node0xa227bd8</title>
<polygon fill="none" stroke="black" points="166,-388.5 166,-441.5 252,-441.5 252,-388.5 166,-388.5"/>
<text text-anchor="start" x="174" y="-426.3" font-family="Times,serif" font-size="14.00">[B5]</text>
<text text-anchor="start" x="174" y="-411.3" font-family="Times,serif" font-size="14.00"> 1: i</text>
<text text-anchor="start" x="174" y="-396.3" font-family="Times,serif" font-size="14.00"> 2: [B5.1]++</text>
</g>
<!-- Node0xa227e80 -->
<g id="node7" class="node"><title>Node0xa227e80</title>
<polygon fill="none" stroke="black" points="0,-613.5 0,-711.5 302,-711.5 302,-613.5 0,-613.5"/>
<text text-anchor="start" x="8" y="-696.3" font-family="Times,serif" font-size="14.00">[B8]</text>
<text text-anchor="start" x="8" y="-681.3" font-family="Times,serif" font-size="14.00"> 1: i</text>
<text text-anchor="start" x="8" y="-666.3" font-family="Times,serif" font-size="14.00"> 2: [B8.1] (ImplicitCastExpr, LValueToRValue, int)</text>
<text text-anchor="start" x="8" y="-651.3" font-family="Times,serif" font-size="14.00"> 3: 100</text>
<text text-anchor="start" x="8" y="-636.3" font-family="Times,serif" font-size="14.00"> 4: [B8.2] &lt; [B8.3]</text>
<text text-anchor="start" x="8" y="-621.3" font-family="Times,serif" font-size="14.00"> T: for (...; [B8.4]; ...)</text>
</g>
<!-- Node0xa227bd8&#45;&gt;Node0xa227e80 -->
<g id="edge6" class="edge"><title>Node0xa227bd8&#45;&gt;Node0xa227e80</title>
<path fill="none" stroke="black" d="M189.052,-441.79C181.84,-452.438 174.398,-465.258 170,-478 156.055,-518.404 151.486,-566.549 150.307,-603.385"/>
<polygon fill="black" stroke="black" points="146.806,-603.376 150.059,-613.459 153.804,-603.548 146.806,-603.376"/>
</g>
<!-- Node0xa227e80&#45;&gt;Node0xa227ae0 -->
<g id="edge11" class="edge"><title>Node0xa227e80&#45;&gt;Node0xa227ae0</title>
<path fill="none" stroke="black" d="M142.925,-613.329C135.575,-557.305 129.595,-462.936 157,-388 160.438,-378.6 165.165,-369.251 170.449,-360.385"/>
<polygon fill="black" stroke="black" points="173.549,-362.028 175.891,-351.696 167.617,-358.313 173.549,-362.028"/>
</g>
<!-- Node0xa227d88 -->
<g id="node9" class="node"><title>Node0xa227d88</title>
<polygon fill="none" stroke="black" points="179,-478.5 179,-576.5 481,-576.5 481,-478.5 179,-478.5"/>
<text text-anchor="start" x="187" y="-561.3" font-family="Times,serif" font-size="14.00">[B7]</text>
<text text-anchor="start" x="187" y="-546.3" font-family="Times,serif" font-size="14.00"> 1: i</text>
<text text-anchor="start" x="187" y="-531.3" font-family="Times,serif" font-size="14.00"> 2: [B7.1] (ImplicitCastExpr, LValueToRValue, int)</text>
<text text-anchor="start" x="187" y="-516.3" font-family="Times,serif" font-size="14.00"> 3: 50</text>
<text text-anchor="start" x="187" y="-501.3" font-family="Times,serif" font-size="14.00"> 4: [B7.2] == [B7.3]</text>
<text text-anchor="start" x="187" y="-486.3" font-family="Times,serif" font-size="14.00"> T: if [B7.4]</text>
</g>
<!-- Node0xa227e80&#45;&gt;Node0xa227d88 -->
<g id="edge10" class="edge"><title>Node0xa227e80&#45;&gt;Node0xa227d88</title>
<path fill="none" stroke="black" d="M215.623,-613.484C228.975,-603.563 243.129,-593.047 256.762,-582.917"/>
<polygon fill="black" stroke="black" points="259.232,-585.442 265.171,-576.669 255.057,-579.824 259.232,-585.442"/>
</g>
<!-- Node0xa227cb0 -->
<g id="node8" class="node"><title>Node0xa227cb0</title>
<polygon fill="none" stroke="black" points="282,-396 282,-434 352,-434 352,-396 282,-396"/>
<text text-anchor="start" x="290" y="-418.8" font-family="Times,serif" font-size="14.00">[B6]</text>
<text text-anchor="start" x="290" y="-403.8" font-family="Times,serif" font-size="14.00"> T: break;</text>
</g>
<!-- Node0xa227cb0&#45;&gt;Node0xa227ae0 -->
<g id="edge7" class="edge"><title>Node0xa227cb0&#45;&gt;Node0xa227ae0</title>
<path fill="none" stroke="black" d="M300.157,-395.753C290.886,-385.71 278.828,-372.647 266.716,-359.526"/>
<polygon fill="black" stroke="black" points="268.954,-356.79 259.6,-351.816 263.811,-361.538 268.954,-356.79"/>
</g>
<!-- Node0xa227d88&#45;&gt;Node0xa227bd8 -->
<g id="edge9" class="edge"><title>Node0xa227d88&#45;&gt;Node0xa227bd8</title>
<path fill="none" stroke="black" d="M277.28,-478.355C266.216,-468.251 254.8,-457.826 244.544,-448.459"/>
<polygon fill="black" stroke="black" points="246.697,-445.686 236.952,-441.527 241.976,-450.854 246.697,-445.686"/>
</g>
<!-- Node0xa227d88&#45;&gt;Node0xa227cb0 -->
<g id="edge8" class="edge"><title>Node0xa227d88&#45;&gt;Node0xa227cb0</title>
<path fill="none" stroke="black" d="M324.336,-478.355C322.965,-466.7 321.543,-454.617 320.321,-444.225"/>
<polygon fill="black" stroke="black" points="323.774,-443.621 319.129,-434.098 316.822,-444.438 323.774,-443.621"/>
</g>
<!-- Node0xa227f98 -->
<g id="node10" class="node"><title>Node0xa227f98</title>
<polygon fill="none" stroke="black" points="90.5,-748.5 90.5,-831.5 211.5,-831.5 211.5,-748.5 90.5,-748.5"/>
<text text-anchor="start" x="98.5" y="-816.3" font-family="Times,serif" font-size="14.00">[B9]</text>
<text text-anchor="start" x="98.5" y="-801.3" font-family="Times,serif" font-size="14.00"> 1: int i;</text>
<text text-anchor="start" x="98.5" y="-786.3" font-family="Times,serif" font-size="14.00"> 2: 0</text>
<text text-anchor="start" x="98.5" y="-771.3" font-family="Times,serif" font-size="14.00"> 3: i</text>
<text text-anchor="start" x="98.5" y="-756.3" font-family="Times,serif" font-size="14.00"> 4: [B9.3] = [B9.2]</text>
</g>
<!-- Node0xa227f98&#45;&gt;Node0xa227e80 -->
<g id="edge12" class="edge"><title>Node0xa227f98&#45;&gt;Node0xa227e80</title>
<path fill="none" stroke="black" d="M151,-748.254C151,-739.92 151,-730.993 151,-722.175"/>
<polygon fill="black" stroke="black" points="154.5,-721.914 151,-711.914 147.5,-721.914 154.5,-721.914"/>
</g>
<!-- Node0xa228090 -->
<g id="node11" class="node"><title>Node0xa228090</title>
<polygon fill="none" stroke="black" points="98,-868.5 98,-904.5 204,-904.5 204,-868.5 98,-868.5"/>
<text text-anchor="start" x="106" y="-882.8" font-family="Times,serif" font-size="14.00">[B10 (ENTRY)]</text>
</g>
<!-- Node0xa228090&#45;&gt;Node0xa227f98 -->
<g id="edge13" class="edge"><title>Node0xa228090&#45;&gt;Node0xa227f98</title>
<path fill="none" stroke="black" d="M151,-868.167C151,-860.654 151,-851.427 151,-841.999"/>
<polygon fill="black" stroke="black" points="154.5,-841.762 151,-831.762 147.5,-841.762 154.5,-841.762"/>
</g>
</g>
</svg>
